<mxfile host="Electron" agent="Mozilla/5.0 (Windows NT 10.0; Win64; x64) AppleWebKit/537.36 (KHTML, like Gecko) draw.io/24.7.5 Chrome/126.0.6478.183 Electron/31.3.0 Safari/537.36" version="24.7.5">
  <diagram name="第 1 页" id="lHzldC-0Sw9XLEniDAMC">
    <mxGraphModel dx="724" dy="430" grid="1" gridSize="10" guides="1" tooltips="1" connect="1" arrows="1" fold="1" page="1" pageScale="1" pageWidth="900" pageHeight="1600" math="0" shadow="0">
      <root>
        <mxCell id="0" />
        <mxCell id="1" parent="0" />
        <mxCell id="Qlvhh5iRdDzubJsFdWex-16" style="edgeStyle=orthogonalEdgeStyle;rounded=0;orthogonalLoop=1;jettySize=auto;html=1;exitX=0;exitY=1;exitDx=0;exitDy=0;entryX=0;entryY=0;entryDx=0;entryDy=0;" edge="1" parent="1" source="Qlvhh5iRdDzubJsFdWex-1" target="Qlvhh5iRdDzubJsFdWex-2">
          <mxGeometry relative="1" as="geometry" />
        </mxCell>
        <mxCell id="Qlvhh5iRdDzubJsFdWex-17" style="edgeStyle=orthogonalEdgeStyle;rounded=0;orthogonalLoop=1;jettySize=auto;html=1;exitX=1;exitY=0.5;exitDx=0;exitDy=0;" edge="1" parent="1" source="Qlvhh5iRdDzubJsFdWex-1">
          <mxGeometry relative="1" as="geometry">
            <mxPoint x="510.181818181818" y="300.27272727272725" as="targetPoint" />
            <Array as="points">
              <mxPoint x="510" y="300" />
              <mxPoint x="510" y="300" />
            </Array>
          </mxGeometry>
        </mxCell>
        <mxCell id="Qlvhh5iRdDzubJsFdWex-18" style="edgeStyle=orthogonalEdgeStyle;rounded=0;orthogonalLoop=1;jettySize=auto;html=1;exitX=1;exitY=0.5;exitDx=0;exitDy=0;entryX=0;entryY=0.5;entryDx=0;entryDy=0;" edge="1" parent="1" source="Qlvhh5iRdDzubJsFdWex-1" target="Qlvhh5iRdDzubJsFdWex-6">
          <mxGeometry relative="1" as="geometry" />
        </mxCell>
        <mxCell id="Qlvhh5iRdDzubJsFdWex-1" value="10/0" style="ellipse;whiteSpace=wrap;html=1;" vertex="1" parent="1">
          <mxGeometry x="390" y="260" width="120" height="80" as="geometry" />
        </mxCell>
        <mxCell id="Qlvhh5iRdDzubJsFdWex-19" style="edgeStyle=orthogonalEdgeStyle;rounded=0;orthogonalLoop=1;jettySize=auto;html=1;" edge="1" parent="1" source="Qlvhh5iRdDzubJsFdWex-2" target="Qlvhh5iRdDzubJsFdWex-3">
          <mxGeometry relative="1" as="geometry" />
        </mxCell>
        <mxCell id="Qlvhh5iRdDzubJsFdWex-2" value="01/0" style="ellipse;whiteSpace=wrap;html=1;" vertex="1" parent="1">
          <mxGeometry x="390" y="430" width="120" height="80" as="geometry" />
        </mxCell>
        <mxCell id="Qlvhh5iRdDzubJsFdWex-20" style="edgeStyle=orthogonalEdgeStyle;rounded=0;orthogonalLoop=1;jettySize=auto;html=1;exitX=1;exitY=0.5;exitDx=0;exitDy=0;" edge="1" parent="1" source="Qlvhh5iRdDzubJsFdWex-3" target="Qlvhh5iRdDzubJsFdWex-3">
          <mxGeometry relative="1" as="geometry">
            <mxPoint x="800" y="560" as="targetPoint" />
          </mxGeometry>
        </mxCell>
        <mxCell id="Qlvhh5iRdDzubJsFdWex-3" value="11/1" style="ellipse;whiteSpace=wrap;html=1;" vertex="1" parent="1">
          <mxGeometry x="650" y="430" width="120" height="80" as="geometry" />
        </mxCell>
        <mxCell id="Qlvhh5iRdDzubJsFdWex-30" style="edgeStyle=orthogonalEdgeStyle;rounded=0;orthogonalLoop=1;jettySize=auto;html=1;exitX=0.5;exitY=1;exitDx=0;exitDy=0;entryX=0.5;entryY=0;entryDx=0;entryDy=0;" edge="1" parent="1" source="Qlvhh5iRdDzubJsFdWex-6" target="Qlvhh5iRdDzubJsFdWex-2">
          <mxGeometry relative="1" as="geometry" />
        </mxCell>
        <mxCell id="Qlvhh5iRdDzubJsFdWex-6" value="00/1" style="ellipse;whiteSpace=wrap;html=1;" vertex="1" parent="1">
          <mxGeometry x="650" y="260" width="120" height="80" as="geometry" />
        </mxCell>
        <mxCell id="Qlvhh5iRdDzubJsFdWex-9" style="edgeStyle=orthogonalEdgeStyle;rounded=0;orthogonalLoop=1;jettySize=auto;html=1;exitX=0;exitY=0.5;exitDx=0;exitDy=0;entryX=0.5;entryY=0;entryDx=0;entryDy=0;" edge="1" parent="1" source="Qlvhh5iRdDzubJsFdWex-7" target="Qlvhh5iRdDzubJsFdWex-1">
          <mxGeometry relative="1" as="geometry" />
        </mxCell>
        <mxCell id="Qlvhh5iRdDzubJsFdWex-13" style="edgeStyle=orthogonalEdgeStyle;rounded=0;orthogonalLoop=1;jettySize=auto;html=1;exitX=0;exitY=0;exitDx=0;exitDy=0;entryX=0;entryY=0.375;entryDx=0;entryDy=0;entryPerimeter=0;" edge="1" parent="1" source="Qlvhh5iRdDzubJsFdWex-7" target="Qlvhh5iRdDzubJsFdWex-2">
          <mxGeometry relative="1" as="geometry">
            <mxPoint x="360" y="470" as="targetPoint" />
          </mxGeometry>
        </mxCell>
        <mxCell id="Qlvhh5iRdDzubJsFdWex-7" value="start" style="ellipse;whiteSpace=wrap;html=1;" vertex="1" parent="1">
          <mxGeometry x="530" y="130" width="120" height="80" as="geometry" />
        </mxCell>
        <mxCell id="Qlvhh5iRdDzubJsFdWex-11" value="0" style="text;strokeColor=none;align=center;fillColor=none;html=1;verticalAlign=middle;whiteSpace=wrap;rounded=0;" vertex="1" parent="1">
          <mxGeometry x="470" y="140" width="60" height="30" as="geometry" />
        </mxCell>
        <mxCell id="Qlvhh5iRdDzubJsFdWex-12" value="1" style="text;strokeColor=none;align=center;fillColor=none;html=1;verticalAlign=middle;whiteSpace=wrap;rounded=0;" vertex="1" parent="1">
          <mxGeometry x="330" y="310" width="60" height="30" as="geometry" />
        </mxCell>
        <mxCell id="Qlvhh5iRdDzubJsFdWex-21" value="1" style="text;strokeColor=none;align=center;fillColor=none;html=1;verticalAlign=middle;whiteSpace=wrap;rounded=0;" vertex="1" parent="1">
          <mxGeometry x="770" y="490" width="60" height="30" as="geometry" />
        </mxCell>
        <mxCell id="Qlvhh5iRdDzubJsFdWex-22" style="edgeStyle=orthogonalEdgeStyle;rounded=0;orthogonalLoop=1;jettySize=auto;html=1;exitX=0;exitY=0;exitDx=0;exitDy=0;entryX=0.921;entryY=0.758;entryDx=0;entryDy=0;entryPerimeter=0;" edge="1" parent="1" source="Qlvhh5iRdDzubJsFdWex-3" target="Qlvhh5iRdDzubJsFdWex-1">
          <mxGeometry relative="1" as="geometry" />
        </mxCell>
        <mxCell id="Qlvhh5iRdDzubJsFdWex-23" value="0" style="text;strokeColor=none;align=center;fillColor=none;html=1;verticalAlign=middle;whiteSpace=wrap;rounded=0;" vertex="1" parent="1">
          <mxGeometry x="560" y="420" width="60" height="30" as="geometry" />
        </mxCell>
        <mxCell id="Qlvhh5iRdDzubJsFdWex-25" value="0" style="text;strokeColor=none;align=center;fillColor=none;html=1;verticalAlign=middle;whiteSpace=wrap;rounded=0;" vertex="1" parent="1">
          <mxGeometry x="550" y="280" width="60" height="30" as="geometry" />
        </mxCell>
        <mxCell id="Qlvhh5iRdDzubJsFdWex-26" value="1" style="text;strokeColor=none;align=center;fillColor=none;html=1;verticalAlign=middle;whiteSpace=wrap;rounded=0;" vertex="1" parent="1">
          <mxGeometry x="370" y="360" width="60" height="30" as="geometry" />
        </mxCell>
        <mxCell id="Qlvhh5iRdDzubJsFdWex-28" value="1" style="text;strokeColor=none;align=center;fillColor=none;html=1;verticalAlign=middle;whiteSpace=wrap;rounded=0;" vertex="1" parent="1">
          <mxGeometry x="550" y="460" width="60" height="30" as="geometry" />
        </mxCell>
        <mxCell id="Qlvhh5iRdDzubJsFdWex-31" value="1" style="text;strokeColor=none;align=center;fillColor=none;html=1;verticalAlign=middle;whiteSpace=wrap;rounded=0;" vertex="1" parent="1">
          <mxGeometry x="690" y="350" width="60" height="30" as="geometry" />
        </mxCell>
        <mxCell id="Qlvhh5iRdDzubJsFdWex-32" style="edgeStyle=orthogonalEdgeStyle;rounded=0;orthogonalLoop=1;jettySize=auto;html=1;exitX=0.5;exitY=0;exitDx=0;exitDy=0;entryX=1;entryY=0.625;entryDx=0;entryDy=0;entryPerimeter=0;" edge="1" parent="1" source="Qlvhh5iRdDzubJsFdWex-6" target="Qlvhh5iRdDzubJsFdWex-6">
          <mxGeometry relative="1" as="geometry" />
        </mxCell>
        <mxCell id="Qlvhh5iRdDzubJsFdWex-33" value="0" style="text;strokeColor=none;align=center;fillColor=none;html=1;verticalAlign=middle;whiteSpace=wrap;rounded=0;" vertex="1" parent="1">
          <mxGeometry x="720" y="220" width="60" height="30" as="geometry" />
        </mxCell>
        <mxCell id="Qlvhh5iRdDzubJsFdWex-34" style="edgeStyle=orthogonalEdgeStyle;rounded=0;orthogonalLoop=1;jettySize=auto;html=1;exitX=0;exitY=1;exitDx=0;exitDy=0;entryX=0;entryY=0;entryDx=0;entryDy=0;" edge="1" parent="1" source="Qlvhh5iRdDzubJsFdWex-37" target="Qlvhh5iRdDzubJsFdWex-39">
          <mxGeometry relative="1" as="geometry" />
        </mxCell>
        <mxCell id="Qlvhh5iRdDzubJsFdWex-35" style="edgeStyle=orthogonalEdgeStyle;rounded=0;orthogonalLoop=1;jettySize=auto;html=1;exitX=1;exitY=0.5;exitDx=0;exitDy=0;" edge="1" parent="1" source="Qlvhh5iRdDzubJsFdWex-37">
          <mxGeometry relative="1" as="geometry">
            <mxPoint x="400.181818181818" y="750.2727272727273" as="targetPoint" />
            <Array as="points">
              <mxPoint x="400" y="750" />
              <mxPoint x="400" y="750" />
            </Array>
          </mxGeometry>
        </mxCell>
        <mxCell id="Qlvhh5iRdDzubJsFdWex-36" style="edgeStyle=orthogonalEdgeStyle;rounded=0;orthogonalLoop=1;jettySize=auto;html=1;exitX=1;exitY=0.5;exitDx=0;exitDy=0;entryX=0;entryY=0.5;entryDx=0;entryDy=0;" edge="1" parent="1" source="Qlvhh5iRdDzubJsFdWex-37" target="Qlvhh5iRdDzubJsFdWex-43">
          <mxGeometry relative="1" as="geometry" />
        </mxCell>
        <mxCell id="Qlvhh5iRdDzubJsFdWex-37" value="start" style="ellipse;whiteSpace=wrap;html=1;" vertex="1" parent="1">
          <mxGeometry x="280" y="710" width="120" height="80" as="geometry" />
        </mxCell>
        <mxCell id="Qlvhh5iRdDzubJsFdWex-39" value="01：为1" style="ellipse;whiteSpace=wrap;html=1;" vertex="1" parent="1">
          <mxGeometry x="280" y="880" width="120" height="80" as="geometry" />
        </mxCell>
        <mxCell id="Qlvhh5iRdDzubJsFdWex-60" style="edgeStyle=orthogonalEdgeStyle;rounded=0;orthogonalLoop=1;jettySize=auto;html=1;exitX=0.5;exitY=1;exitDx=0;exitDy=0;entryX=0.5;entryY=1;entryDx=0;entryDy=0;" edge="1" parent="1" source="Qlvhh5iRdDzubJsFdWex-43" target="Qlvhh5iRdDzubJsFdWex-39">
          <mxGeometry relative="1" as="geometry" />
        </mxCell>
        <mxCell id="Qlvhh5iRdDzubJsFdWex-43" value="00:得到0" style="ellipse;whiteSpace=wrap;html=1;" vertex="1" parent="1">
          <mxGeometry x="540" y="710" width="120" height="80" as="geometry" />
        </mxCell>
        <mxCell id="Qlvhh5iRdDzubJsFdWex-49" value="1" style="text;strokeColor=none;align=center;fillColor=none;html=1;verticalAlign=middle;whiteSpace=wrap;rounded=0;" vertex="1" parent="1">
          <mxGeometry x="660" y="940" width="60" height="30" as="geometry" />
        </mxCell>
        <mxCell id="Qlvhh5iRdDzubJsFdWex-52" value="0/0" style="text;strokeColor=none;align=center;fillColor=none;html=1;verticalAlign=middle;whiteSpace=wrap;rounded=0;" vertex="1" parent="1">
          <mxGeometry x="440" y="730" width="60" height="30" as="geometry" />
        </mxCell>
        <mxCell id="Qlvhh5iRdDzubJsFdWex-53" value="1/0" style="text;strokeColor=none;align=center;fillColor=none;html=1;verticalAlign=middle;whiteSpace=wrap;rounded=0;" vertex="1" parent="1">
          <mxGeometry x="260" y="810" width="60" height="30" as="geometry" />
        </mxCell>
        <mxCell id="Qlvhh5iRdDzubJsFdWex-56" style="edgeStyle=orthogonalEdgeStyle;rounded=0;orthogonalLoop=1;jettySize=auto;html=1;exitX=0.5;exitY=0;exitDx=0;exitDy=0;entryX=1;entryY=0.625;entryDx=0;entryDy=0;entryPerimeter=0;" edge="1" parent="1" source="Qlvhh5iRdDzubJsFdWex-43" target="Qlvhh5iRdDzubJsFdWex-43">
          <mxGeometry relative="1" as="geometry" />
        </mxCell>
        <mxCell id="Qlvhh5iRdDzubJsFdWex-57" value="0/1" style="text;strokeColor=none;align=center;fillColor=none;html=1;verticalAlign=middle;whiteSpace=wrap;rounded=0;" vertex="1" parent="1">
          <mxGeometry x="610" y="670" width="60" height="30" as="geometry" />
        </mxCell>
        <mxCell id="Qlvhh5iRdDzubJsFdWex-61" value="1/0" style="text;strokeColor=none;align=center;fillColor=none;html=1;verticalAlign=middle;whiteSpace=wrap;rounded=0;" vertex="1" parent="1">
          <mxGeometry x="580" y="860" width="60" height="30" as="geometry" />
        </mxCell>
        <mxCell id="Qlvhh5iRdDzubJsFdWex-62" value="1/1" style="text;strokeColor=none;align=center;fillColor=none;html=1;verticalAlign=middle;whiteSpace=wrap;rounded=0;" vertex="1" parent="1">
          <mxGeometry x="350" y="840" width="60" height="30" as="geometry" />
        </mxCell>
        <mxCell id="Qlvhh5iRdDzubJsFdWex-63" style="edgeStyle=orthogonalEdgeStyle;rounded=0;orthogonalLoop=1;jettySize=auto;html=1;entryX=1;entryY=0.5;entryDx=0;entryDy=0;" edge="1" parent="1" source="Qlvhh5iRdDzubJsFdWex-39" target="Qlvhh5iRdDzubJsFdWex-39">
          <mxGeometry relative="1" as="geometry" />
        </mxCell>
        <mxCell id="Qlvhh5iRdDzubJsFdWex-65" style="edgeStyle=orthogonalEdgeStyle;rounded=0;orthogonalLoop=1;jettySize=auto;html=1;exitX=1;exitY=1;exitDx=0;exitDy=0;entryX=0.211;entryY=0.892;entryDx=0;entryDy=0;entryPerimeter=0;" edge="1" parent="1" source="Qlvhh5iRdDzubJsFdWex-39" target="Qlvhh5iRdDzubJsFdWex-43">
          <mxGeometry relative="1" as="geometry" />
        </mxCell>
        <mxCell id="Qlvhh5iRdDzubJsFdWex-66" value="0/0" style="text;strokeColor=none;align=center;fillColor=none;html=1;verticalAlign=middle;whiteSpace=wrap;rounded=0;" vertex="1" parent="1">
          <mxGeometry x="450" y="920" width="60" height="30" as="geometry" />
        </mxCell>
        <mxCell id="Qlvhh5iRdDzubJsFdWex-67" value="" style="endArrow=classic;html=1;rounded=0;entryX=0.413;entryY=1.024;entryDx=0;entryDy=0;entryPerimeter=0;exitX=0.42;exitY=-0.026;exitDx=0;exitDy=0;exitPerimeter=0;" edge="1" parent="1" source="Qlvhh5iRdDzubJsFdWex-2" target="Qlvhh5iRdDzubJsFdWex-1">
          <mxGeometry width="50" height="50" relative="1" as="geometry">
            <mxPoint x="445" y="420" as="sourcePoint" />
            <mxPoint x="495" y="370" as="targetPoint" />
          </mxGeometry>
        </mxCell>
        <mxCell id="Qlvhh5iRdDzubJsFdWex-68" value="0" style="text;strokeColor=none;align=center;fillColor=none;html=1;verticalAlign=middle;whiteSpace=wrap;rounded=0;" vertex="1" parent="1">
          <mxGeometry x="420" y="350" width="60" height="30" as="geometry" />
        </mxCell>
      </root>
    </mxGraphModel>
  </diagram>
</mxfile>
